# xmcd CD database file
#
# Track frame offsets:
#	150
#	14761
#	28111
#	42924
#	56534
#	71233
#	89702
#	100111
#	123409
#	140052
#	161158
#	182434
#	196144
#	211267
#	230371
#	247372
#	265665
#	281123
#	291632
#	313059
#	329196
#
# Disc length: 4657 seconds
#
# Revision: 0
# Processed by: cddbd v1.4PL0 Copyright (c) Steve Scherf et al.
# Submitted via: CDex 1.40Beta9
#
DISCID=57122f15
DTITLE=John Denver - Greatest Hits Vol. 1 and 2
DYEAR=1900
DGENRE=Country
TTITLE0=Take Me Home, Country Roads
TTITLE1=Follow Me
TTITLE2=Starwood in Aspen
TTITLE3=For Baby (For Bobbie)
TTITLE4=Rhymes and Reasons
TTITLE5=Leving on a Jet Plane
TTITLE6=The Eagle and The Hawk
TTITLE7=Sunshine on My Shoulder
TTITLE8=Goodbye Again
TTITLE9=Poems, Prayers and Promises
TTITLE10=Rocky Mountain High
TTITLE11=Annie's Song
TTITLE12=Welcome To My Morning
TTITLE13=Fly Away
TTITLE14=Like A Sad Song
TTITLE15=Looking For Space
TTITLE16=Thank God I'm a Country Boy
TTITLE17=Grandma's Feather Bed
TTITLE18=Back Home Again
TTITLE19=I'm Sorry
TTITLE20=My Sweet Lady
EXTD=ID3G: 2
EXTT0=
EXTT1=
EXTT2=
EXTT3=
EXTT4=
EXTT5=
EXTT6=
EXTT7=
EXTT8=
EXTT9=
EXTT10=
EXTT11=
EXTT12=
EXTT13=
EXTT14=
EXTT15=
EXTT16=
EXTT17=
EXTT18=
EXTT19=
EXTT20=
PLAYORDER=
